<svg width="24" height="24" viewBox="0 0 24 24" fill="none" xmlns="http://www.w3.org/2000/svg">
<path fill-rule="evenodd" clip-rule="evenodd" d="M6.29289 17.7071C5.93241 17.3466 5.90468 16.7794 6.2097 16.3871L6.29289 16.2929L10.5858 12L6.29289 7.70711C5.90237 7.31658 5.90237 6.68342 6.29289 6.29289C6.65338 5.93241 7.22061 5.90468 7.6129 6.2097L7.70711 6.29289L12.7071 11.2929C13.0676 11.6534 13.0953 12.2206 12.7903 12.6129L12.7071 12.7071L7.70711 17.7071C7.31658 18.0976 6.68342 18.0976 6.29289 17.7071ZM17.7071 12.7071L12.7071 17.7071C12.3166 18.0976 11.6834 18.0976 11.2929 17.7071C10.9024 17.3166 10.9024 16.6834 11.2929 16.2929L15.5858 12L11.2929 7.70711C10.9024 7.31658 10.9024 6.68342 11.2929 6.29289C11.6834 5.90237 12.3166 5.90237 12.7071 6.29289L17.7071 11.2929C18.0976 11.6834 18.0976 12.3166 17.7071 12.7071Z" fill="#061126"/>
</svg>
